<svg version="1.1" xmlns="http://www.w3.org/2000/svg"
     viewBox="0 0 160.69708674661524 134.81216205937744" height="20"><!-- svg-source:excalidraw -->
  <metadata></metadata>
  <defs>
    <style class="style-fonts">
    </style>
  </defs>
  <rect x="0" y="0" width="160.69708674661524" height="134.81216205937744" fill="transparent"></rect>
  <g transform="translate(70.31754352185817 10) rotate(0 -21.428600988030666 57.40608102968872)"
     stroke="none">
    <path fill="var(--text-color)"
          d="M 7.35,6.28 Q 7.35,6.28 2.63,11.49 -2.08,16.70 -7.46,22.86 -12.84,29.02 -16.81,34.26 -20.78,39.50 -23.78,43.48 -26.78,47.46 -30.43,52.33 -34.09,57.20 -37.82,60.25 -41.55,63.31 -46.38,65.79 -51.21,68.28 -50.74,63.77 -50.26,59.27 -45.96,60.55 -41.66,61.83 -36.83,65.69 -32.01,69.56 -28.06,72.76 -24.12,75.96 -20.67,79.99 -17.22,84.03 -11.67,84.90 -6.12,85.77 0.31,88.80 6.75,91.82 12.40,95.24 18.06,98.66 21.45,100.98 24.85,103.30 26.50,104.78 28.14,106.26 29.22,108.19 30.31,110.12 30.72,112.30 31.13,114.47 30.83,116.66 30.52,118.86 29.53,120.84 28.55,122.82 26.98,124.38 25.41,125.94 23.42,126.92 21.44,127.90 19.24,128.19 17.05,128.48 14.88,128.06 12.70,127.64 10.78,126.54 8.86,125.45 7.38,123.80 5.91,122.14 5.04,120.11 4.17,118.07 4.00,115.87 3.82,113.66 4.36,111.51 4.90,109.37 6.10,107.51 7.30,105.64 9.03,104.26 10.75,102.88 12.83,102.12 14.91,101.36 17.13,101.31 19.34,101.26 21.45,101.91 23.57,102.57 25.36,103.86 27.16,105.16 28.44,106.96 29.73,108.76 30.37,110.88 31.02,113.00 30.95,115.21 30.88,117.42 30.11,119.50 29.35,121.57 27.95,123.29 26.56,125.02 24.69,126.20 22.83,127.39 20.68,127.92 18.53,128.45 16.32,128.26 14.12,128.07 12.09,127.19 10.05,126.31 10.06,126.31 10.06,126.32 6.92,124.18 3.78,122.05 -0.20,119.22 -4.20,116.40 -10.05,113.74 -15.89,111.08 -20.92,108.96 -25.95,106.84 -29.89,104.91 -33.82,102.99 -39.05,97.43 -44.28,91.88 -49.08,87.39 -53.87,82.90 -59.85,77.97 -65.84,73.04 -67.50,68.41 -69.17,63.77 -63.65,55.57 -58.12,47.37 -53.32,45.67 -48.53,43.96 -44.42,40.07 -40.32,36.18 -37.17,32.79 -34.02,29.39 -29.98,24.14 -25.94,18.89 -21.05,11.77 -16.17,4.65 -11.76,-0.81 -7.35,-6.28 -6.49,-7.07 -5.63,-7.86 -4.61,-8.42 -3.59,-8.98 -2.46,-9.28 -1.33,-9.58 -0.17,-9.60 0.99,-9.62 2.13,-9.36 3.27,-9.10 4.31,-8.58 5.35,-8.06 6.24,-7.30 7.12,-6.54 7.80,-5.59 8.48,-4.64 8.92,-3.56 9.35,-2.48 9.51,-1.32 9.67,-0.17 9.55,0.98 9.43,2.14 9.04,3.24 8.64,4.34 8.00,5.31 7.35,6.28 7.35,6.28 L 7.35,6.28 Z"></path>
  </g>
  <g
    transform="translate(11.587303776890622 70.78290932555319) rotate(0 69.55489148486231 -1.6884141479313257)"
    stroke="none">
    <path fill="var(--text-color)"
          d="M -0.49,-9.39 Q -0.49,-9.39 8.82,-9.33 18.13,-9.28 26.12,-9.24 34.11,-9.21 40.72,-9.38 47.32,-9.55 52.28,-9.85 57.23,-10.14 62.71,-9.99 68.18,-9.84 75.12,-11.45 82.05,-13.06 86.46,-13.83 90.87,-14.59 95.64,-14.91 100.41,-15.22 106.80,-15.37 113.19,-15.51 117.85,-15.75 122.51,-15.99 128.25,-15.39 133.99,-14.79 130.55,-11.81 127.10,-8.82 128.29,-10.60 129.47,-12.37 131.16,-13.67 132.85,-14.98 134.87,-15.67 136.88,-16.36 139.02,-16.38 141.15,-16.39 143.17,-15.73 145.20,-15.06 146.91,-13.78 148.61,-12.50 149.82,-10.74 151.03,-8.99 151.61,-6.94 152.20,-4.89 152.10,-2.76 152.00,-0.63 151.22,1.35 150.44,3.34 149.08,4.97 147.71,6.61 145.89,7.72 144.07,8.83 141.99,9.30 139.91,9.78 137.79,9.56 135.66,9.34 133.72,8.46 131.78,7.58 130.22,6.12 128.66,4.67 127.65,2.79 126.64,0.91 126.28,-1.18 125.92,-3.28 126.25,-5.39 126.59,-7.50 127.57,-9.39 128.56,-11.28 130.10,-12.76 131.64,-14.23 133.56,-15.14 135.49,-16.05 137.61,-16.29 139.73,-16.54 141.82,-16.09 143.90,-15.65 145.74,-14.56 147.57,-13.47 148.96,-11.86 150.35,-10.24 151.16,-8.27 151.96,-6.29 152.09,-4.16 152.22,-2.03 151.66,0.02 151.10,2.07 151.10,2.07 151.11,2.07 142.95,6.53 134.80,10.99 128.66,10.11 122.52,9.23 117.87,9.00 113.23,8.77 106.92,8.65 100.62,8.53 95.09,8.31 89.56,8.09 84.56,8.68 79.55,9.27 73.90,9.38 68.25,9.48 62.80,8.18 57.36,6.88 52.45,6.65 47.54,6.43 41.03,6.44 34.52,6.44 26.76,6.89 19.00,7.34 9.74,8.36 0.49,9.39 -0.64,9.31 -1.77,9.24 -2.85,8.89 -3.93,8.54 -4.89,7.95 -5.86,7.35 -6.65,6.55 -7.45,5.74 -8.03,4.76 -8.61,3.79 -8.94,2.70 -9.26,1.61 -9.32,0.48 -9.38,-0.64 -9.17,-1.75 -8.95,-2.87 -8.48,-3.90 -8.01,-4.93 -7.30,-5.82 -6.59,-6.70 -5.69,-7.40 -4.80,-8.09 -3.76,-8.54 -2.72,-9.00 -1.60,-9.20 -0.49,-9.39 -0.49,-9.39 L -0.49,-9.39 Z"></path>
  </g>
</svg>
