<svg version="1.1" xmlns="http://www.w3.org/2000/svg" viewBox="0 0 159.95303381177655 144.92176928804474"
     height="20"><!-- svg-source:excalidraw -->
  <metadata></metadata>
  <defs>
    <style class="style-fonts">
    </style>
  </defs>
  <rect x="0" y="0" width="159.95303381177655" height="144.92176928804474" fill="transparent"></rect>
  <g transform="translate(10 79.72872253302558) rotate(0 66.98035349365819 -2.9899000536297535)" stroke="none">
    <path fill="var(--border-color)"
          d="M -1.04,-10.23 Q -1.04,-10.23 5.70,-10.70 12.45,-11.17 18.17,-11.52 23.88,-11.87 28.19,-12.15 32.50,-12.44 37.65,-13.32 42.79,-14.21 47.54,-14.60 52.28,-15.00 57.46,-14.96 62.64,-14.92 68.15,-15.16 73.66,-15.39 78.33,-15.59 83.00,-15.79 87.79,-15.95 92.58,-16.12 96.85,-16.24 101.13,-16.36 107.17,-16.43 113.22,-16.50 117.67,-16.61 122.11,-16.71 125.64,-17.65 129.16,-18.59 131.30,-19.03 133.44,-19.46 135.61,-19.19 137.78,-18.92 139.74,-17.97 141.71,-17.02 143.27,-15.50 144.83,-13.97 145.83,-12.02 146.82,-10.08 147.14,-7.92 147.45,-5.76 147.07,-3.61 146.68,-1.46 145.62,0.45 144.57,2.36 142.96,3.83 141.35,5.31 139.35,6.20 137.36,7.08 135.18,7.28 133.01,7.48 130.88,6.98 128.76,6.47 126.90,5.32 125.05,4.16 123.66,2.47 122.28,0.79 121.50,-1.25 120.73,-3.29 120.64,-5.47 120.56,-7.65 121.18,-9.75 121.80,-11.84 123.05,-13.63 124.31,-15.42 126.07,-16.71 127.83,-18.00 129.91,-18.67 131.99,-19.33 134.17,-19.30 136.36,-19.26 138.42,-18.53 140.47,-17.80 142.19,-16.45 143.91,-15.10 145.10,-13.27 146.30,-11.44 146.85,-9.33 147.40,-7.21 147.24,-5.04 147.09,-2.86 146.25,-0.84 145.41,1.16 143.97,2.81 142.53,4.45 140.64,5.54 138.75,6.64 138.75,6.64 138.75,6.64 135.86,7.65 132.97,8.67 127.54,9.11 122.11,9.54 117.67,9.43 113.22,9.32 107.17,9.25 101.13,9.19 96.85,9.06 92.58,8.94 87.79,8.78 83.00,8.61 78.34,8.42 73.68,8.22 68.18,8.00 62.69,7.78 57.64,7.84 52.58,7.91 46.61,7.71 40.64,7.51 32.79,7.73 24.94,7.95 19.70,8.19 14.46,8.42 7.75,9.32 1.04,10.23 -0.19,10.20 -1.43,10.18 -2.63,9.86 -3.82,9.54 -4.91,8.94 -6.00,8.35 -6.91,7.51 -7.82,6.67 -8.51,5.63 -9.19,4.60 -9.61,3.43 -10.03,2.27 -10.15,1.03 -10.28,-0.19 -10.10,-1.42 -9.93,-2.65 -9.47,-3.80 -9.01,-4.95 -8.28,-5.95 -7.56,-6.96 -6.62,-7.76 -5.67,-8.57 -4.57,-9.12 -3.46,-9.68 -2.25,-9.95 -1.04,-10.23 -1.04,-10.23 L -1.04,-10.23 Z"></path>
  </g>
  <g transform="translate(76.97893096033658 10) rotate(0 36.48705142571998 62.46088464402237)" stroke="none">
    <path fill="var(--border-color)"
          d="M 7.07,-7.49 Q 7.07,-7.49 9.68,-5.27 12.28,-3.04 16.01,0.05 19.74,3.14 26.01,6.59 32.28,10.03 36.09,12.62 39.89,15.20 43.20,17.88 46.52,20.56 52.15,25.55 57.79,30.53 63.40,35.42 69.02,40.31 73.76,43.40 78.50,46.48 82.15,51.61 85.80,56.74 82.99,67.05 80.17,77.37 75.61,83.04 71.05,88.71 67.07,93.95 63.09,99.19 60.03,102.52 56.96,105.84 51.74,109.87 46.52,113.90 42.15,116.52 37.78,119.14 33.60,120.74 29.41,122.33 25.48,125.44 21.55,128.55 16.11,133.21 10.66,137.88 8.41,138.65 6.16,139.42 3.78,139.43 1.40,139.44 -0.85,138.70 -3.11,137.95 -5.01,136.52 -6.91,135.09 -8.26,133.12 -9.60,131.16 -10.25,128.87 -10.90,126.58 -10.78,124.20 -10.67,121.83 -9.80,119.61 -8.93,117.40 -7.39,115.57 -5.86,113.75 -3.83,112.52 -1.80,111.28 0.51,110.76 2.84,110.23 5.20,110.48 7.57,110.72 9.74,111.71 11.90,112.70 13.64,114.33 15.37,115.96 16.50,118.05 17.62,120.15 18.02,122.50 18.41,124.84 18.04,127.20 17.67,129.55 16.56,131.65 15.46,133.76 13.74,135.41 12.02,137.05 9.86,138.06 7.71,139.07 5.34,139.34 2.98,139.61 0.65,139.11 -1.66,138.61 -3.71,137.39 -5.75,136.17 -7.30,134.37 -8.85,132.56 -9.74,130.35 -10.63,128.15 -10.77,125.77 -10.91,123.40 -10.29,121.10 -9.66,118.80 -8.34,116.83 -7.01,114.85 -5.12,113.40 -3.24,111.95 -3.24,111.95 -3.24,111.96 -1.69,110.71 -0.14,109.47 4.68,106.18 9.51,102.89 14.12,99.47 18.72,96.04 22.62,94.30 26.52,92.57 30.95,90.55 35.39,88.53 39.91,83.33 44.44,78.13 46.92,74.65 49.39,71.18 53.70,68.05 58.01,64.92 53.87,61.79 49.74,58.66 44.80,54.47 39.86,50.29 35.76,46.41 31.66,42.53 28.30,38.05 24.94,33.57 21.13,30.79 17.32,28.02 12.37,25.08 7.42,22.14 2.54,17.29 -2.32,12.44 -4.70,9.97 -7.07,7.49 -7.87,6.54 -8.66,5.58 -9.21,4.46 -9.75,3.35 -10.01,2.13 -10.27,0.91 -10.23,-0.32 -10.19,-1.56 -9.85,-2.76 -9.52,-3.95 -8.90,-5.04 -8.29,-6.12 -7.44,-7.02 -6.59,-7.93 -5.54,-8.60 -4.50,-9.27 -3.32,-9.68 -2.14,-10.08 -0.91,-10.19 0.32,-10.30 1.55,-10.11 2.78,-9.92 3.93,-9.45 5.07,-8.97 6.07,-8.23 7.07,-7.49 7.07,-7.49 L 7.07,-7.49 Z"></path>
  </g>
</svg>
