<svg version="1.1" xmlns="http://www.w3.org/2000/svg" viewBox="0 0 248.79878521323553 227.65309757797877"
     height="20"><!-- svg-source:excalidraw -->
  <metadata></metadata>
  <defs>
    <style class="style-fonts">
    </style>
  </defs>
  <rect x="0" y="0" height="20" fill="transparent"></rect>
  <g transform="translate(443.75609859311953 177.50743644855902) rotate(0 -319.35670598650177 -63.680887659569635)"
     stroke="none">
    <path fill="var(--border-color)"
          d="M -438.58,-76.00 Q -438.58,-76.00 -437.52,-81.38 -436.46,-86.75 -435.34,-92.90 -434.23,-99.05 -431.13,-105.42 -428.03,-111.79 -424.90,-117.33 -421.78,-122.87 -418.33,-127.88 -414.88,-132.89 -411.29,-136.95 -407.71,-141.01 -403.71,-145.45 -399.71,-149.89 -394.67,-154.72 -389.63,-159.54 -382.91,-163.50 -376.19,-167.46 -368.98,-169.98 -361.77,-172.50 -357.36,-173.89 -352.95,-175.28 -346.96,-177.10 -340.96,-178.92 -334.25,-179.66 -327.54,-180.40 -322.78,-180.58 -318.03,-180.76 -312.14,-180.51 -306.24,-180.27 -301.09,-180.16 -295.95,-180.05 -291.62,-179.34 -287.30,-178.64 -280.31,-176.25 -273.32,-173.87 -268.22,-170.83 -263.12,-167.80 -259.15,-165.60 -255.18,-163.40 -250.87,-160.10 -246.57,-156.80 -242.83,-153.39 -239.09,-149.99 -235.67,-147.01 -232.25,-144.03 -223.31,-133.08 -214.38,-122.14 -211.17,-117.60 -207.95,-113.07 -204.36,-106.29 -200.77,-99.51 -199.41,-95.23 -198.04,-90.94 -196.78,-82.51 -195.51,-74.07 -195.46,-64.25 -195.42,-54.43 -196.58,-46.58 -197.74,-38.73 -199.59,-34.17 -201.44,-29.61 -204.06,-25.83 -206.67,-22.06 -212.00,-17.81 -217.32,-13.56 -223.20,-9.31 -229.07,-5.05 -232.86,-2.84 -236.65,-0.63 -241.51,1.40 -246.37,3.43 -242.07,-0.86 -237.78,-5.17 -234.41,-1.47 -231.04,2.21 -227.33,5.16 -223.62,8.12 -218.62,11.43 -213.61,14.74 -207.99,17.15 -202.36,19.56 -201.47,19.81 -200.59,20.05 -199.14,20.91 -197.69,21.78 -196.49,22.96 -195.28,24.14 -194.40,25.58 -193.52,27.02 -193.01,28.63 -192.49,30.23 -192.38,31.92 -192.26,33.60 -192.56,35.26 -192.85,36.92 -193.53,38.47 -194.21,40.01 -195.24,41.34 -196.27,42.68 -197.59,43.73 -198.91,44.78 -200.45,45.48 -201.98,46.19 -203.64,46.50 -205.30,46.82 -206.98,46.73 -208.66,46.64 -210.28,46.15 -211.89,45.66 -219.24,48.74 -226.59,51.83 -233.10,52.37 -239.61,52.90 -245.07,53.36 -250.54,53.81 -258.31,52.94 -266.08,52.08 -269.79,49.92 -273.49,47.76 -277.45,44.12 -281.40,40.49 -285.39,35.68 -289.38,30.86 -292.85,26.18 -296.31,21.50 -299.43,17.84 -302.56,14.18 -298.85,17.26 -295.15,20.33 -300.51,20.16 -305.88,19.99 -311.56,20.30 -317.24,20.62 -323.45,20.74 -329.66,20.87 -334.49,20.86 -339.31,20.84 -345.18,20.51 -351.05,20.17 -356.65,18.78 -362.26,17.39 -367.56,15.65 -372.87,13.91 -379.19,10.21 -385.51,6.51 -391.33,1.32 -397.15,-3.87 -401.16,-7.80 -405.16,-11.74 -408.65,-14.63 -412.13,-17.52 -417.18,-22.26 -422.22,-27.00 -425.84,-31.26 -429.45,-35.53 -432.38,-39.07 -435.32,-42.61 -438.08,-45.97 -440.85,-49.32 -443.88,-53.89 -446.92,-58.45 -445.52,-66.13 -444.12,-73.80 -439.43,-76.90 -434.75,-79.99 -438.11,-76.54 -441.47,-73.08 -440.58,-74.59 -439.69,-76.10 -438.47,-77.36 -437.24,-78.61 -435.76,-79.54 -434.27,-80.46 -432.60,-81.00 -430.93,-81.54 -429.19,-81.67 -427.44,-81.79 -425.71,-81.50 -423.99,-81.20 -422.38,-80.50 -420.77,-79.80 -419.38,-78.74 -417.99,-77.68 -416.89,-76.31 -415.80,-74.94 -415.06,-73.35 -414.32,-71.76 -413.98,-70.05 -413.65,-68.33 -413.73,-66.58 -413.82,-64.83 -414.32,-63.15 -414.82,-61.47 -428.74,-67.57 -442.66,-73.67 -442.34,-75.97 -442.02,-78.27 -440.98,-80.35 -439.94,-82.43 -438.29,-84.07 -436.64,-85.71 -434.56,-86.73 -432.47,-87.76 -430.17,-88.06 -427.86,-88.37 -425.58,-87.92 -423.30,-87.47 -421.28,-86.32 -419.26,-85.17 -417.72,-83.44 -416.17,-81.70 -415.26,-79.56 -414.35,-77.43 -414.17,-75.11 -413.99,-72.79 -414.56,-70.54 -415.13,-68.29 -416.39,-66.33 -417.65,-64.38 -419.46,-62.93 -421.28,-61.48 -423.46,-60.69 -425.65,-59.89 -427.97,-59.84 -430.30,-59.78 -432.51,-60.47 -434.73,-61.17 -436.62,-62.53 -438.50,-63.89 -439.85,-65.78 -441.20,-67.68 -441.87,-69.90 -442.54,-72.12 -442.47,-74.45 -442.40,-76.77 -441.59,-78.95 -440.78,-81.13 -439.32,-82.93 -437.86,-84.74 -435.89,-85.98 -433.93,-87.23 -431.67,-87.78 -429.42,-88.33 -427.10,-88.13 -424.78,-87.94 -422.65,-87.01 -420.52,-86.08 -418.80,-84.52 -417.07,-82.97 -415.94,-80.94 -414.80,-78.91 -414.37,-76.63 -413.94,-74.34 -413.94,-74.35 -413.94,-74.35 -427.71,-73.72 -441.47,-73.08 -440.58,-74.59 -439.69,-76.10 -438.47,-77.36 -437.24,-78.61 -435.76,-79.53 -434.27,-80.46 -432.60,-81.00 -430.94,-81.54 -429.19,-81.67 -427.44,-81.79 -425.71,-81.50 -423.99,-81.20 -422.38,-80.50 -420.77,-79.80 -419.38,-78.74 -417.99,-77.68 -416.89,-76.31 -415.80,-74.94 -415.06,-73.36 -414.32,-71.77 -413.98,-70.05 -413.65,-68.33 -413.73,-66.58 -413.82,-64.83 -414.32,-63.15 -414.82,-61.47 -418.52,-58.64 -422.22,-55.81 -421.93,-62.99 -421.65,-70.18 -418.91,-66.77 -416.18,-63.37 -412.21,-58.84 -408.25,-54.31 -405.17,-50.69 -402.09,-47.07 -398.12,-43.23 -394.16,-39.38 -389.68,-35.40 -385.20,-31.42 -381.02,-27.39 -376.83,-23.37 -372.13,-19.42 -367.44,-15.48 -361.74,-12.84 -356.05,-10.20 -350.29,-8.83 -344.53,-7.46 -338.86,-7.51 -333.19,-7.56 -327.92,-7.53 -322.64,-7.51 -317.93,-7.66 -313.21,-7.81 -305.55,-8.19 -297.90,-8.58 -291.06,-6.36 -284.21,-4.13 -279.92,-1.14 -275.63,1.84 -272.63,6.11 -269.63,10.39 -266.81,13.87 -263.98,17.34 -258.08,21.70 -252.18,26.05 -246.55,25.56 -240.91,25.06 -236.63,24.81 -232.35,24.55 -227.16,23.06 -221.97,21.56 -215.97,20.35 -209.97,19.15 -205.28,19.60 -200.59,20.05 -199.14,20.91 -197.69,21.78 -196.49,22.96 -195.29,24.14 -194.40,25.58 -193.52,27.02 -193.01,28.63 -192.49,30.23 -192.38,31.92 -192.26,33.60 -192.56,35.26 -192.85,36.92 -193.53,38.46 -194.21,40.01 -195.24,41.34 -196.27,42.68 -197.59,43.73 -198.91,44.78 -200.45,45.48 -201.98,46.18 -203.64,46.50 -205.29,46.82 -206.98,46.73 -208.66,46.64 -210.28,46.15 -211.89,45.66 -216.56,43.74 -221.24,41.82 -226.01,39.33 -230.78,36.84 -236.74,32.12 -242.70,27.41 -247.42,23.07 -252.14,18.74 -257.29,11.43 -262.44,4.12 -263.59,-0.27 -264.73,-4.67 -263.03,-9.65 -261.33,-14.64 -253.80,-19.82 -246.28,-25.01 -242.28,-27.31 -238.28,-29.61 -233.54,-33.01 -228.81,-36.41 -224.63,-40.90 -220.44,-45.40 -219.35,-49.82 -218.26,-54.25 -218.53,-60.09 -218.79,-65.94 -218.96,-72.60 -219.13,-79.26 -220.12,-84.65 -221.10,-90.05 -223.27,-95.40 -225.43,-100.76 -228.28,-104.78 -231.13,-108.81 -239.65,-116.95 -248.17,-125.10 -251.91,-128.14 -255.66,-131.19 -261.36,-135.93 -267.07,-140.68 -271.53,-142.86 -276.00,-145.04 -282.10,-147.97 -288.20,-150.90 -292.34,-152.02 -296.49,-153.14 -302.60,-153.37 -308.70,-153.60 -315.23,-153.92 -321.76,-154.24 -327.86,-154.14 -333.96,-154.05 -339.29,-152.59 -344.62,-151.14 -352.32,-148.45 -360.02,-145.77 -364.49,-144.02 -368.96,-142.27 -373.34,-139.12 -377.72,-135.97 -381.44,-132.07 -385.16,-128.17 -388.85,-124.36 -392.54,-120.56 -396.05,-116.53 -399.55,-112.49 -402.28,-108.90 -405.02,-105.31 -409.08,-99.00 -413.14,-92.69 -414.56,-87.73 -415.97,-82.77 -417.00,-77.39 -418.03,-72.01 -418.42,-70.81 -418.81,-69.61 -419.47,-68.54 -420.14,-67.47 -421.04,-66.59 -421.94,-65.70 -423.02,-65.06 -424.11,-64.42 -425.32,-64.06 -426.53,-63.70 -427.79,-63.63 -429.05,-63.57 -430.28,-63.81 -431.52,-64.05 -432.67,-64.58 -433.81,-65.11 -434.80,-65.90 -435.78,-66.69 -436.55,-67.69 -437.32,-68.69 -437.82,-69.85 -438.33,-71.00 -438.54,-72.25 -438.75,-73.49 -438.67,-74.75 -438.58,-76.01 -438.58,-76.00 L -438.58,-76.00 Z"></path>
  </g>
</svg>
