<svg version="1.1" xmlns="http://www.w3.org/2000/svg" viewBox="0 0 184.7358026428119 177.33194634424945"
     width="20" height="20"><!-- svg-source:excalidraw -->
  <metadata></metadata>
  <defs>
    <style class="style-fonts">
    </style>
  </defs>
  <rect x="0" y="0" width="184.7358026428119" height="177.33194634424945" fill="transparent"></rect>
  <g transform="translate(10 11.930453329376178) rotate(0 79.62230461068975 1.4478399970339524)" stroke="none">
    <path fill="var(--border-color)"
          d="M -0.78,-10.06 Q -0.78,-10.06 6.33,-10.34 13.46,-10.63 19.55,-10.88 25.65,-11.13 32.91,-11.66 40.18,-12.20 45.10,-12.68 50.02,-13.16 54.57,-13.41 59.13,-13.66 63.58,-13.93 68.04,-14.20 75.60,-13.69 83.17,-13.17 88.90,-11.87 94.64,-10.56 100.84,-9.74 107.05,-8.91 112.12,-8.95 117.20,-8.98 121.46,-9.44 125.71,-9.91 130.02,-10.04 134.33,-10.18 140.03,-11.19 145.74,-12.21 151.79,-13.31 157.83,-14.41 160.17,-14.26 162.51,-14.11 164.68,-13.22 166.85,-12.32 168.62,-10.79 170.38,-9.25 171.57,-7.23 172.76,-5.21 173.23,-2.91 173.71,-0.62 173.43,1.70 173.15,4.03 172.15,6.14 171.14,8.26 169.51,9.94 167.88,11.63 165.79,12.70 163.71,13.77 161.39,14.13 159.08,14.48 156.77,14.07 154.46,13.67 152.40,12.55 150.34,11.43 148.75,9.71 147.16,7.99 146.20,5.85 145.24,3.71 145.01,1.38 144.78,-0.94 145.31,-3.23 145.84,-5.51 147.07,-7.50 148.31,-9.50 150.11,-10.99 151.91,-12.49 154.10,-13.33 156.29,-14.18 158.63,-14.28 160.97,-14.38 163.22,-13.72 165.47,-13.07 167.40,-11.74 169.32,-10.40 170.72,-8.52 172.11,-6.63 172.84,-4.40 173.56,-2.18 173.53,0.16 173.51,2.50 172.73,4.71 171.96,6.93 170.52,8.78 169.08,10.63 167.13,11.92 165.17,13.21 162.91,13.81 160.64,14.41 160.64,14.41 160.65,14.41 157.83,14.92 155.02,15.42 150.68,16.35 146.34,17.28 140.49,17.62 134.64,17.96 130.28,17.99 125.92,18.02 121.44,18.31 116.95,18.60 111.60,18.36 106.25,18.11 101.22,17.23 96.18,16.34 92.00,15.52 87.82,14.71 82.37,13.12 76.91,11.53 72.47,10.94 68.04,10.34 63.58,10.07 59.13,9.80 54.58,9.55 50.04,9.30 45.25,8.88 40.47,8.46 33.44,8.22 26.41,7.97 20.68,8.19 14.95,8.41 7.86,9.23 0.78,10.06 -0.42,10.00 -1.64,9.95 -2.81,9.61 -3.98,9.27 -5.03,8.66 -6.08,8.05 -6.95,7.20 -7.83,6.36 -8.48,5.33 -9.12,4.30 -9.51,3.14 -9.89,1.99 -9.98,0.77 -10.08,-0.43 -9.88,-1.63 -9.68,-2.83 -9.20,-3.95 -8.72,-5.06 -7.99,-6.04 -7.26,-7.01 -6.31,-7.77 -5.37,-8.54 -4.27,-9.06 -3.17,-9.58 -1.97,-9.82 -0.78,-10.06 -0.78,-10.06 L -0.78,-10.06 Z"></path>
  </g>
  <g transform="translate(174.7358026428119 87.21813317509077) rotate(0 -80.53750351426424 1.9304533293761779)"
     stroke="none">
    <path fill="var(--border-color)"
          d="M 1.22,10.09 Q 1.22,10.09 -5.64,10.70 -12.50,11.30 -17.75,11.78 -23.00,12.26 -27.68,12.56 -32.36,12.85 -36.96,13.35 -41.56,13.85 -46.32,14.21 -51.08,14.56 -55.69,14.77 -60.29,14.98 -65.17,14.78 -70.05,14.59 -75.14,14.32 -80.23,14.05 -85.53,13.75 -90.83,13.46 -95.29,13.72 -99.75,13.99 -104.49,14.66 -109.22,15.34 -113.59,15.74 -117.96,16.15 -122.46,16.76 -126.96,17.38 -132.27,17.62 -137.58,17.87 -143.25,17.31 -148.93,16.75 -153.46,16.10 -158.00,15.45 -159.99,15.43 -161.98,15.42 -164.26,14.89 -166.55,14.37 -168.55,13.14 -170.54,11.92 -172.04,10.12 -173.55,8.32 -174.39,6.13 -175.24,3.95 -175.35,1.61 -175.45,-0.72 -174.81,-2.97 -174.16,-5.23 -172.83,-7.16 -171.50,-9.08 -169.62,-10.48 -167.74,-11.89 -165.51,-12.61 -163.29,-13.34 -160.94,-13.32 -158.60,-13.30 -156.39,-12.53 -154.17,-11.77 -152.32,-10.33 -150.47,-8.90 -149.17,-6.95 -147.87,-4.99 -147.26,-2.73 -146.66,-0.47 -146.81,1.86 -146.95,4.20 -147.84,6.37 -148.73,8.54 -150.26,10.31 -151.79,12.08 -153.81,13.27 -155.83,14.46 -158.12,14.95 -160.42,15.43 -162.74,15.16 -165.07,14.88 -167.19,13.88 -169.31,12.88 -170.99,11.25 -172.68,9.62 -173.76,7.54 -174.84,5.46 -175.20,3.15 -175.55,0.83 -175.15,-1.47 -174.75,-3.78 -173.64,-5.84 -172.52,-7.90 -170.81,-9.49 -169.09,-11.09 -166.95,-12.06 -164.82,-13.02 -162.49,-13.25 -160.15,-13.48 -160.16,-13.48 -160.16,-13.49 -155.29,-12.83 -150.42,-12.18 -145.03,-11.20 -139.64,-10.22 -134.70,-10.20 -129.76,-10.17 -125.36,-10.71 -120.95,-11.25 -116.65,-11.57 -112.36,-11.89 -107.31,-12.37 -102.27,-12.85 -96.20,-13.08 -90.13,-13.31 -84.86,-12.68 -79.60,-12.05 -74.41,-11.51 -69.21,-10.97 -64.75,-10.08 -60.30,-9.19 -55.70,-8.98 -51.10,-8.77 -46.48,-8.43 -41.85,-8.10 -37.45,-7.80 -33.04,-7.50 -28.72,-7.51 -24.40,-7.52 -19.63,-7.74 -14.85,-7.97 -8.04,-9.03 -1.22,-10.09 -0.00,-10.09 1.22,-10.09 2.41,-9.80 3.60,-9.50 4.68,-8.94 5.77,-8.37 6.69,-7.55 7.61,-6.74 8.30,-5.73 9.00,-4.72 9.43,-3.58 9.87,-2.43 10.02,-1.21 10.16,-0.00 10.02,1.21 9.87,2.43 9.44,3.57 9.00,4.72 8.30,5.73 7.61,6.74 6.69,7.55 5.77,8.36 4.69,8.93 3.60,9.50 2.41,9.80 1.22,10.09 1.22,10.09 L 1.22,10.09 Z"></path>
  </g>
  <g transform="translate(19.151989035701263 166.36671967956136) rotate(0 75.96150899641361 0.48261333234404447)"
     stroke="none">
    <path fill="var(--border-color)"
          d="M 0,-10.29 Q 0,-10.29 4.99,-10.35 9.98,-10.41 16.85,-10.69 23.71,-10.98 27.96,-11.30 32.20,-11.63 38.06,-11.94 43.92,-12.26 49.23,-12.39 54.54,-12.52 59.83,-12.54 65.12,-12.56 69.91,-12.55 74.70,-12.54 79.97,-12.70 85.24,-12.87 89.88,-13.09 94.51,-13.32 99.56,-13.53 104.61,-13.75 109.27,-13.80 113.93,-13.86 118.96,-13.91 123.99,-13.95 128.47,-14.04 132.95,-14.13 137.70,-14.21 142.45,-14.29 146.90,-14.40 151.34,-14.51 153.74,-14.21 156.13,-13.91 158.29,-12.87 160.46,-11.82 162.19,-10.14 163.91,-8.46 165.00,-6.31 166.10,-4.16 166.45,-1.78 166.80,0.59 166.38,2.96 165.95,5.33 164.79,7.44 163.63,9.55 161.85,11.18 160.08,12.81 157.88,13.79 155.67,14.76 153.28,14.99 150.88,15.21 148.53,14.65 146.19,14.10 144.15,12.82 142.10,11.55 140.57,9.69 139.04,7.83 138.19,5.58 137.33,3.33 137.24,0.92 137.15,-1.48 137.83,-3.79 138.51,-6.10 139.89,-8.07 141.27,-10.04 143.21,-11.47 145.15,-12.89 147.45,-13.63 149.74,-14.36 152.15,-14.32 154.56,-14.28 156.83,-13.48 159.10,-12.67 160.99,-11.19 162.89,-9.70 164.21,-7.68 165.53,-5.67 166.13,-3.34 166.74,-1.01 166.57,1.39 166.40,3.79 165.48,6.01 164.55,8.23 162.96,10.04 161.37,11.86 159.29,13.06 157.21,14.27 154.85,14.75 152.49,15.23 152.49,15.23 152.49,15.23 147.47,15.24 142.45,15.26 137.70,15.18 132.95,15.10 128.47,15.01 123.99,14.92 118.97,14.87 113.95,14.83 108.31,14.78 102.67,14.73 97.57,14.74 92.48,14.74 87.79,14.74 83.11,14.73 78.62,14.56 74.14,14.39 68.93,14.07 63.72,13.75 58.78,13.44 53.85,13.12 48.88,12.81 43.91,12.49 38.05,12.06 32.20,11.63 27.96,11.30 23.71,10.98 16.85,10.69 9.98,10.41 4.99,10.35 0,10.29 -1.23,10.14 -2.46,9.99 -3.62,9.55 -4.78,9.11 -5.80,8.41 -6.82,7.70 -7.65,6.77 -8.47,5.84 -9.05,4.75 -9.62,3.65 -9.92,2.44 -10.22,1.24 -10.22,-0.00 -10.22,-1.24 -9.92,-2.44 -9.62,-3.65 -9.05,-4.75 -8.47,-5.85 -7.65,-6.77 -6.82,-7.70 -5.80,-8.41 -4.78,-9.11 -3.62,-9.55 -2.46,-9.99 -1.23,-10.14 0.00,-10.29 0.00,-10.29 L 0,-10.29 Z"></path>
  </g>
</svg>

